<svg width="199" height="37" viewBox="0 0 199 37" fill="none" xmlns="http://www.w3.org/2000/svg">
<path d="M5.03047 0.511597L13.9016 0.596902C18.5078 0.596902 22.6022 2.30289 26.1848 5.62958C29.6821 8.95627 31.4734 13.136 31.4734 17.998C31.4734 22.8601 29.7674 27.0398 26.2701 30.5371C22.8581 34.0344 18.6784 35.7404 13.731 35.7404H4.94516C2.98327 35.7404 1.78908 35.3139 1.27728 34.5462C0.850779 33.8638 0.680176 32.8402 0.680176 31.4754V4.77659C0.680176 4.00889 0.680181 3.41179 0.765481 3.07059C0.850781 2.72939 0.93608 2.30289 1.19198 1.79109C1.70378 0.938096 2.89797 0.511597 5.03047 0.511597ZM20.1285 24.6514C22.0051 22.9454 22.9434 20.8129 22.9434 18.1686C22.9434 15.6097 22.0051 13.3919 20.2138 11.6859C18.4225 9.97988 16.29 9.04157 13.8163 9.04157H9.21015V27.2104H13.9016C16.2047 27.2957 18.2519 26.4427 20.1285 24.6514Z" fill="#00FF93"/>
<path d="M51.0922 0.170532C55.869 0.170532 59.9634 1.87653 63.4607 5.28852C66.958 8.70051 68.664 12.9655 68.664 18.0835C68.664 23.2015 66.958 27.4665 63.6313 31.049C60.3046 34.6316 56.2102 36.4229 51.3481 36.4229C46.486 36.4229 42.3063 34.6316 38.8944 31.1343C35.4824 27.637 33.7764 23.3721 33.7764 18.51C33.7764 15.8657 34.2882 13.392 35.2265 11.0036C36.1648 8.70051 37.4443 6.73861 39.0649 5.20321C40.6856 3.66782 42.4769 2.38832 44.6094 1.53532C46.7419 0.597023 48.8744 0.170532 51.0922 0.170532ZM42.3916 18.2541C42.3916 21.069 43.3299 23.4574 45.1212 25.1634C46.9978 26.9546 49.045 27.8077 51.2628 27.8077C53.5659 27.8077 55.6131 26.9547 57.4044 25.2487C59.1957 23.5427 60.134 21.1543 60.134 18.2541C60.134 15.3539 59.1957 12.9655 57.4044 11.2595C55.5278 9.46821 53.4806 8.6152 51.2628 8.6152C48.9597 8.6152 46.9125 9.46821 45.1212 11.2595C43.2446 13.1361 42.3916 15.4392 42.3916 18.2541Z" fill="#00FF93"/>
<path d="M93.8273 26.6133L94.6803 26.0162C95.7892 25.3338 96.5569 25.0779 96.9834 25.0779C98.007 25.0779 99.0306 26.0162 100.225 27.8075C100.907 28.9164 101.248 29.8547 101.248 30.5371C101.248 31.2195 100.992 31.7313 100.566 32.2431C100.139 32.6696 99.6277 33.0961 99.0306 33.4373C98.4335 33.7785 97.9217 34.1197 97.4099 34.4609C96.8981 34.8021 95.7892 35.2286 94.1685 35.7404C92.5478 36.2522 90.9271 36.5081 89.3917 36.5081C87.8563 36.5081 86.3209 36.3375 84.7855 35.911C83.2501 35.4845 81.6294 34.8021 80.0087 33.8638C78.388 32.9255 76.8526 31.7313 75.5731 30.3665C74.2936 29.0017 73.1847 27.2957 72.3317 25.1632C71.4787 23.0307 71.0522 20.7276 71.0522 18.254C71.0522 15.7803 71.4787 13.4772 72.3317 11.43C73.1847 9.38278 74.2083 7.67677 75.4878 6.39728C76.7673 5.03248 78.3027 3.92359 79.9234 3.07059C83.0795 1.36459 86.2356 0.511597 89.3917 0.511597C90.9271 0.511597 92.4625 0.767499 93.9979 1.194C95.5333 1.6205 96.7275 2.13229 97.4952 2.64409L98.6894 3.32649C99.2865 3.66769 99.713 4.00889 100.054 4.17949C100.907 4.86189 101.334 5.62958 101.334 6.48258C101.334 7.33558 100.992 8.18858 100.31 9.12688C99.0306 10.8329 97.9217 11.6859 96.9834 11.6859C96.3863 11.6859 95.6186 11.3447 94.5097 10.6623C93.1449 9.55337 91.3536 9.04157 89.1358 9.04157C87.0886 9.04157 85.0414 9.72397 82.9942 11.1741C82.0559 11.8565 81.2029 12.8801 80.6058 14.1596C79.9234 15.4391 79.6675 16.8892 79.6675 18.5099C79.6675 20.1305 80.0087 21.5806 80.6058 22.8601C81.2882 24.1396 82.0559 25.1632 83.0795 25.9309C85.0414 27.381 87.0886 28.0634 89.2211 28.0634C90.2447 28.0634 91.183 27.9781 92.036 27.6369C92.8037 27.1251 93.4861 26.8692 93.8273 26.6133Z" fill="#00FF93"/>
<path d="M119.588 18.0836C124.535 22.775 127.947 26.3576 129.994 28.746C131.018 29.9402 131.615 30.9638 131.615 31.7315C131.615 32.4992 130.933 33.5228 129.653 34.6317C128.374 35.7406 127.35 36.2524 126.497 36.2524C125.644 36.2524 124.706 35.57 123.512 34.2052L112.934 22.0926V31.4756C112.934 32.2433 112.934 32.8404 112.849 33.1816C112.764 33.5228 112.679 33.9493 112.423 34.4611C111.996 35.3141 110.717 35.7406 108.669 35.7406C106.452 35.7406 105.087 35.1435 104.746 33.9493C104.575 33.4375 104.49 32.5845 104.49 31.4756V4.77679C104.49 4.00909 104.49 3.4973 104.575 3.1561C104.66 2.8149 104.746 2.3884 105.002 1.87661C105.428 1.02361 106.708 0.597109 108.755 0.597109C110.973 0.597109 112.337 1.1942 112.764 2.3884C112.934 2.90019 113.02 3.7532 113.02 4.8621V14.0745C117.37 9.12708 120.867 5.11799 123.597 1.9619C124.706 0.682401 125.729 0 126.497 0C127.35 0 128.374 0.511806 129.653 1.6207C130.933 2.7296 131.615 3.66789 131.615 4.52089C131.615 5.37389 131.103 6.31219 130.165 7.42109C128.288 9.55358 125.388 12.5391 121.55 16.2923L119.588 18.0836Z" fill="#00FF93"/>
<path d="M143.728 27.2959H158.57C159.338 27.2959 159.85 27.2959 160.191 27.3812C160.532 27.4665 160.958 27.5518 161.47 27.8077C162.323 28.2342 162.75 29.5137 162.75 31.5609C162.75 33.7786 162.153 35.1434 160.958 35.4846C160.447 35.6552 159.594 35.7405 158.485 35.7405H139.463C137.245 35.7405 135.88 35.1434 135.539 33.9492C135.368 33.4374 135.283 32.5845 135.283 31.4756V4.77673C135.283 3.15603 135.624 2.04714 136.222 1.45004C136.819 0.852945 138.013 0.597046 139.719 0.597046H158.655C159.423 0.597046 159.935 0.597038 160.276 0.682338C160.617 0.767638 161.044 0.852937 161.556 1.10884C162.409 1.53534 162.835 2.81484 162.835 4.86203C162.835 7.07983 162.238 8.44462 161.044 8.78582C160.532 8.95642 159.679 9.04172 158.57 9.04172H143.813V13.9038H153.367C154.134 13.9038 154.646 13.9038 154.987 13.9891C155.329 14.0744 155.755 14.1597 156.267 14.4156C157.12 14.8421 157.546 16.1216 157.546 18.1688C157.546 20.3866 156.949 21.7514 155.755 22.0926C155.243 22.2632 154.39 22.3485 153.281 22.3485H143.898V27.2959H143.728Z" fill="#00FF93"/>
<path d="M168.209 0.511597H194.908C195.932 0.511597 196.7 0.596891 197.126 0.852791C197.638 1.10869 197.894 1.44989 198.064 1.96169C198.235 2.47349 198.32 3.15589 198.32 4.00889C198.32 4.86189 198.235 5.54428 198.064 5.97078C197.894 6.48257 197.638 6.82378 197.211 6.99438C196.614 7.25028 195.847 7.42088 194.738 7.42088H185.525V31.646C185.525 32.4137 185.525 32.9255 185.44 33.2667C185.355 33.6079 185.269 34.0344 185.013 34.4609C184.758 34.8874 184.331 35.2286 183.734 35.4845C183.137 35.6551 182.284 35.7404 181.346 35.7404C180.322 35.7404 179.554 35.6551 178.957 35.4845C178.36 35.3139 177.934 34.9727 177.678 34.4609C177.422 34.0344 177.251 33.6079 177.251 33.1814C177.166 32.8402 177.166 32.2431 177.166 31.5607V7.42088H167.953C166.93 7.42088 166.162 7.33558 165.736 7.07968C165.224 6.82378 164.968 6.48257 164.797 5.97078C164.627 5.45898 164.542 4.77659 164.542 3.92359C164.542 3.07059 164.627 2.38819 164.797 1.96169C164.968 1.44989 165.224 1.1087 165.65 0.938096C166.333 0.682196 167.101 0.511597 168.209 0.511597Z" fill="#00FF93"/>
</svg>
